<?xml version="1.0" encoding="utf-8"?>
<!-- Generator: Adobe Illustrator 30.2.1, SVG Export Plug-In . SVG Version: 9.03 Build 0)  -->
<svg version="1.1" xmlns="http://www.w3.org/2000/svg" xmlns:xlink="http://www.w3.org/1999/xlink" x="0px" y="0px"
	 viewBox="0 0 1024 1024" style="enable-background:new 0 0 1024 1024;" xml:space="preserve">
<g>
</g>
<g id="_x31___x2013__Layer">
	<path d="M492.6132202,668.3062134l24.6513672-51.9134521c0,128.6868286-0.7469482,106.7515869,0,195.954895
		c94.1235962-133.8049927,172.5599365-155.1725464,262.9484863-168.1702271
		c-17.9283447-124.2997437-33.6155396-237.6318665-38.8446655-292.4700012
		c-18.9766235,4.0115662-58.4467163,13.9656677-85.9064941,30.7093811l44.8208008-59.9563904
		c0,0,38.0861816-15.6373596,67.9781494-14.0966187c24.6513672,134.740509,34.3625488,228.3309021,53.7849121,377.4906311
		c0,0-144.3393555-16.2418213-254.7203979,113.928833c0,0,106.0648804-91.9935913,283.1068726-78.1012573l-47.0617676-342.9210815
		l33.6155396-7.3117676C863.1314697,549.855896,878.3011475,661.4889526,896,773.5953979
		c-59.0139771-12.4299316-223.3567505-10.9675903-345.8668213,77.5045776c0,12.4299927-17.9282837,32.1716919-46.2235718,34.3652344
		c-14.4284363,0.6972656-35.9478149-5.8494263-45.6589661-34.3652344l-38.0976868-24.8599243l29.1335144-65.074585
		c22.8915405,16.5978394,42.4960327,52.7633667,42.4960327,52.7633667
		C492.6132202,750.9290161,491.8661804,739.2302246,492.6132202,668.3062134z"/>
</g>
</svg>
