<?xml version="1.0" encoding="utf-8"?>
<!-- Generator: Adobe Illustrator 30.2.1, SVG Export Plug-In . SVG Version: 9.03 Build 0)  -->
<svg version="1.1" xmlns="http://www.w3.org/2000/svg" xmlns:xlink="http://www.w3.org/1999/xlink" x="0px" y="0px"
	 viewBox="0 0 1024 1024" style="enable-background:new 0 0 1024 1024;" xml:space="preserve">
<g>
</g>
<g id="_x32___x2013__Layer">
	<path d="M179.8421478,383.5829773c17.7631378,26.6310425,29.8386078,38.3546448,50.0234985,66.3728333
		c25.2577972,35.0597839,33.0531158,53.2523193,38.6675873,67.7017212
		c15.2200928,39.1705322,3.4455566,60.1729126,5.7321167,78.2617188
		c13.852417,25.1518555,27.7503052,39.5133667,42.5592041,61.2557983
		c79.5433044-178.9766541,236.0169983-359.6557922,218.431427-449.3432617
		c-1.2929688-6.5941162-7.15448-22.897522-17.5855713-24.4602203c-8.0054626-1.1993256-14.4154053-0.0002899-20.3622437,12.683075
		c-33.4577332,83.4786377-52.8606873,120.289917-75.8956604,165.7859192
		c-22.0340576,36.8718262-52.8002014,58.3103333-83.2988281,58.59198
		c-83.5057678-4.3522339-118.1397705-75.9059448-167.1789551-153.9900208
		c-7.6053314-12.1098022-13.3856506-29.5385742-30.8915253-21.4674377
		c-13.9453888,6.4676514-12.6296158,23.3830261-12.0322418,32.6136169
		C130.8451691,299.5097656,146.6421356,333.8084717,179.8421478,383.5829773z"/>
</g>
</svg>
