<?xml version="1.0" encoding="utf-8"?>
<!-- Generator: Adobe Illustrator 30.2.1, SVG Export Plug-In . SVG Version: 9.03 Build 0)  -->
<svg version="1.1" xmlns="http://www.w3.org/2000/svg" xmlns:xlink="http://www.w3.org/1999/xlink" x="0px" y="0px"
	 viewBox="0 0 1024 1024" style="enable-background:new 0 0 1024 1024;" xml:space="preserve">
<g>
</g>
<g id="_x32___x2013__Layer">
	<path style="fill:#0053A5;" d="M512,102c-155.0100098,0-280.6699829,120.9747314-280.6699829,270.2052002
		c0,9.7908325,0.539978,19.4661255,1.5999756,28.9873657c1.8699951,16.9437866,5.3699951,33.4158325,10.3500366,49.2813721
		c5.7299805,18.2627563,13.4199829,35.7167969,22.8299561,52.1213989c0.8699951,1.5114746,1.75,3.0036621,2.6400146,4.4959106
		l204.2800293,340.6278076c17.3199463,28.8814697,60.6199951,28.8814697,77.9399414,0L755.25,507.0912476
		c0.8900146-1.4922485,1.7700195-2.984436,2.6400146-4.4959106c9.4099731-16.4046021,17.0999756-33.8586426,22.8299561-52.1213989
		c4.9800415-15.8655396,8.4800415-32.3375854,10.3500366-49.2813721c1.0599976-9.5212402,1.5999756-19.1965332,1.5999756-28.9873657
		C792.6699829,222.9747314,667.0100098,102,512,102z"/>
</g>
</svg>
