<?xml version="1.0" encoding="utf-8"?>
<!-- Generator: Adobe Illustrator 30.2.1, SVG Export Plug-In . SVG Version: 9.03 Build 0)  -->
<svg version="1.1" xmlns="http://www.w3.org/2000/svg" xmlns:xlink="http://www.w3.org/1999/xlink" x="0px" y="0px"
	 viewBox="0 0 1024 1024" style="enable-background:new 0 0 1024 1024;" xml:space="preserve">
<g>
</g>
<g id="_x33___x2013__Layer">
	<g>
		<path style="fill:#0081C6;" d="M723.2399902,365.4758301C719.5599976,256.2173462,626.3900146,168.725769,512,168.725769
			s-207.5599976,87.4915771-211.2399902,196.750061c-0.0800171,2.2335205-0.1199951,4.4766235-0.1199951,6.7293701
			c0,7.3743896,0.4099731,14.6621704,1.2099609,21.8344116c2.6900024,24.4048462,9.8900146,47.5292358,20.75,68.5838013
			c1.3600464,2.6282349,2.7700195,5.2179565,4.2300415,7.769104c0.5499878,0.953064,1.0999756,1.8966064,1.6699829,2.8400269
			l151.2600098,272.2269897c14.3300171,25.7910767,50.1499634,25.7910767,64.4799805,0L695.5,473.2325439
			c0.5700073-0.9434204,1.1199951-1.8869629,1.6699829-2.8400269c1.460022-2.5511475,2.8699951-5.1408691,4.2300415-7.769104
			c10.8599854-21.0545654,18.0599976-44.1789551,20.75-68.5838013c0.7999878-7.1722412,1.2099609-14.460022,1.2099609-21.8344116
			C723.3599854,369.9524536,723.3200073,367.7093506,723.2399902,365.4758301z"/>
	</g>
</g>
</svg>
