<?xml version="1.0" encoding="utf-8"?>
<!-- Generator: Adobe Illustrator 30.2.1, SVG Export Plug-In . SVG Version: 9.03 Build 0)  -->
<svg version="1.1" xmlns="http://www.w3.org/2000/svg" xmlns:xlink="http://www.w3.org/1999/xlink" x="0px" y="0px"
	 viewBox="0 0 1024 1024" style="enable-background:new 0 0 1024 1024;" xml:space="preserve">
<g>
</g>
<g id="_x34___x2013__Layer">
	<path d="M192.5228729,701.9915771c-19.9537506-32.8585815-39.93927-65.0006714-59.914032-96.428833
		c51.2845459-5.2348022,68.6749573-5.2348022,108.439621-10.1994629
		c60.8631287,79.8249512,48.1040344,63.7980957,83.2845154,108.0403442
		c48.9454651-111.0915527,104.2142639-196.4920044,146.2380066-258.1911621
		c0.000061-0.0000916,79.3891602-111.9187927,195.2925415-215.6123047
		c17.9432983-16.0530853,59.5005493-52.2077026,124.0245972-78.8162537
		c30.8172607-12.7084961,71.7176514-29.5750732,78.6723022-19.930542
		c-85.1512451,46.0666809-214.729187,174.8452454-301.7315674,341.5371094
		c-46.0801392,74.7045593-69.1202393,112.0567932-89.7789612,167.5978088
		c-17.6313782,42.5787964-29.4961853,65.5797729-97.1835022,214.7062988
		c-5.4291382,11.9560547-17.290802,37.1955566-38.5319519,40.7492676
		c-13.4746094,1.7254028-23.375885-0.7646484-30.6498718-4.7027588
		c-11.3041077-6.1199951-16.7922363-15.1553345-18.7460632-18.8337402"/>
</g>
</svg>
