<?xml version="1.0" encoding="utf-8"?>
<!-- Generator: Adobe Illustrator 30.2.1, SVG Export Plug-In . SVG Version: 9.03 Build 0)  -->
<svg version="1.1" xmlns="http://www.w3.org/2000/svg" xmlns:xlink="http://www.w3.org/1999/xlink" x="0px" y="0px"
	 viewBox="0 0 1024 1024" style="enable-background:new 0 0 1024 1024;" xml:space="preserve">
<g>
</g>
<g id="_x34___x2013__Layer">
	<g>
		<path style="fill:#00A7E6;" d="M637.4699707,330.2212524C619.4299927,280.2370605,570.0700073,244.3566895,512,244.3566895
			s-107.4299927,35.8803711-125.4699707,85.864563c-4.75,13.1506348-7.3300171,27.2736816-7.3300171,41.9839478
			c0,4.6306763,0.25,9.2131958,0.75,13.718689c1.6699829,15.0953979,6.0800171,29.4013062,12.7199707,42.4557495
			c0.0300293,0.0577393,0.0599976,0.1155396,0.0900269,0.1733398c0.9199829,1.8098145,1.8800049,3.5908813,2.8900146,5.3526611
			c0.2599487,0.4524536,0.5299683,0.9049683,0.7999878,1.3574219l93.1699829,169.5918579
			c9.9500122,18.1182861,34.8099976,18.1182861,44.7600098,0l93.1699829-169.5918579
			c0.2700195-0.4524536,0.5400391-0.9049683,0.7999878-1.3574219c1.0100098-1.7617798,1.9700317-3.5428467,2.8900146-5.3526611
			c0.0300293-0.0578003,0.0599976-0.1156006,0.0900269-0.1733398c6.6399536-13.0544434,11.0499878-27.3603516,12.7199707-42.4557495
			c0.5-4.5054932,0.75-9.0880127,0.75-13.718689C644.7999878,357.4949341,642.2199707,343.3718872,637.4699707,330.2212524z
			 M512,437.2600098c-35.9261475,0-65.0499878-29.1238403-65.0499878-65.0499878
			c0-35.9260864,29.1238403-65.0499878,65.0499878-65.0499878c35.9260864,0,65.0499878,29.1239014,65.0499878,65.0499878
			C577.0499878,408.1361694,547.9260864,437.2600098,512,437.2600098z"/>
	</g>
</g>
</svg>
